<svg xmlns="http://www.w3.org/2000/svg" xml:space="preserve" viewBox="0 0 240 90"><g fill="#005FFF"><path d="M166.7 27.3v13.9c0 .1.1.2.1.4.1-.1.2-.2.2-.3.7-2 2.1-3.4 4.2-4 3.2-.9 6.2-.4 8.7 2 1.3 1.3 2 2.9 2.5 4.6.4 1.6.6 3.3.7 4.9.1 1.8 0 3.6-.3 5.3-.4 2-1 3.9-2.3 5.5-1.3 1.6-3 2.5-5 2.9-.4.1-.7.1-1.1.2H173c-.5-.1-.9-.1-1.4-.3-2.1-.6-3.7-1.9-4.5-4 0-.1-.1-.2-.1-.3l-.1-.1-.1.1V62h-7V27.3h6.9zm0 22.4v3.6c0 1.3.6 2.2 1.6 2.9.8.5 1.7.7 2.7.7 1.2 0 2.3-.3 3.2-1.1 1.1-1 1.5-2.3 1.6-3.7v-4.4c0-.5 0-.9-.1-1.4-.3-1.5-1-2.7-2.4-3.4-1.4-.7-2.8-.6-4.2-.1-1.4.5-2.4 1.7-2.3 3.4 0 1.3-.1 2.4-.1 3.5zM210 62.1H186.8v-6.2c0-.2.1-.3.2-.4l10.8-9.3c.8-.7 1.5-1.4 2.2-2.2 1.4-1.5 2-3.3 1.9-5.4-.1-1.6-.8-2.7-2.3-3.3-2-.9-4.5-.4-5.9 1.2-.6.8-1 1.6-1.3 2.6 0 .1-.1.2-.1.4-2.1-.8-4.1-1.6-6.1-2.3.3-.8.6-1.6 1-2.3 1.8-3.2 4.5-5.1 8.1-5.7 2.5-.5 5-.4 7.5.4 3.4 1.1 5.7 3.4 6.5 7 .7 3.2 0 6.1-2 8.8-1.2 1.7-2.8 3.1-4.4 4.5-2.6 2.1-5.3 4.2-7.9 6.2-.1.1-.2.1-.3.3h15.5c-.2 1.7-.2 3.7-.2 5.7zM30 29.4H43.2v3.3h-4.6v26.2h4.6v3.3H30v-3.3h4.6V32.7H30v-3.3zM127.5 62.1V29.3H140.1c2.5 0 4.9.5 7.1 1.7 2.9 1.6 4.7 4 5.8 7.1.7 1.9 1 3.9 1.1 6 .1 2.5 0 5-.6 7.5-.6 2.3-1.6 4.5-3.2 6.3-1.7 1.9-3.8 3.1-6.2 3.7-1.4.4-2.8.5-4.3.5h-12.3zm7.1-6.4h5.2c.6 0 1.3-.1 1.9-.2 1.9-.4 3.4-1.4 4.2-3.2.5-1.1.7-2.2.7-3.4v-6.1c0-.8-.1-1.5-.3-2.3-.4-1.8-1.3-3.3-3.1-4.1-1.1-.5-2.2-.7-3.4-.7h-5.2v20zM81 29.3h5c.2 0 .3.1.3.2 3 5.7 6.1 11.5 9.1 17.2.1.1.1.2.2.3l.2-.2c3-5.7 6.1-11.4 9.1-17.1.1-.2.3-.3.5-.3h4.8v32.7h-3.8V34.6c-.2-.1-.3 0-.3.2-.8 1.6-1.6 3.3-2.5 4.9-1.3 2.4-2.6 4.7-3.9 7.1-1.3 2.4-2.6 4.8-4 7.2-.1.1-.1.2-.2.4-.1-.1-.1-.2-.2-.3-2.5-4.7-5.1-9.3-7.6-14-.9-1.7-1.8-3.5-2.7-5.2-.1-.1-.1-.3-.3-.2v27.5h-3.8c.1-11.1.1-22 .1-32.9zM50.4 29.3H64c1.9 0 3.6.4 5.2 1.5 1.8 1.2 2.8 2.9 3.2 4.9.3 1.7.3 3.4-.3 5.1-.8 2.2-2.4 3.4-4.6 3.9-.1 0-.1.1-.2.2.1.1.1.1.2.1 3.1.4 5.5 2.6 6 5.7.5 2.9 0 5.7-1.8 8.1-1.6 2.1-3.8 3.2-6.5 3.2H50.4V29.3zm3.9 29.3H64c.6 0 1.1 0 1.7-.2 1.9-.4 3.3-1.5 3.7-3.5.3-1.4.2-2.8.1-4.2-.2-1.4-.9-2.4-2.1-3.1-.9-.5-2-.7-3-.7H54.5c-.2 3.9-.2 7.8-.2 11.7zm0-25.8v10.7h9c.5 0 1-.1 1.5-.2 1.8-.4 3-1.6 3.3-3.3.2-1.2.2-2.5 0-3.7-.2-1.4-1.1-2.5-2.4-3-.7-.3-1.5-.4-2.2-.4h-9c0-.1-.1-.1-.2-.1z"/></g></svg>